<svg t="1596386736721" class="icon" viewBox="0 0 1024 1024" version="1.1" xmlns="http://www.w3.org/2000/svg" p-id="25380" width="200" height="200"><path d="M990.718501 487.767086H147.879514c-12.196787 0-28.837792-4.166903-39.567158-9.939373-4.279467-2.282996-105.337093-58.202587-105.337093-221.227544 0-163.027004 101.057627-218.958874 105.362676-221.255173 10.703783-5.734608 27.344788-9.91379 39.541575-9.91379h842.838987c23.793916 0 30.04427 16.150842 31.399127 21.106713 1.356904 4.944616 4.193509 22.036899-16.285918 34.133402-1.006933 0.602727-108.22691 66.033949-109.983927 176.34124-1.75804 109.554138 108.574834 174.886099 109.677959 175.538969 20.658506 11.920494 17.947767 29.062919 16.615422 34.032094-1.330298 4.969175-7.52744 21.183462-31.422663 21.183462zM147.879514 76.831876c-3.802606 0-11.933797 2.033309-15.271822 3.827165-3.037173 1.694595-78.231759 45.152363-78.231759 175.941128 0 130.798998 75.194586 174.243463 78.394465 176.027086 3.175319 1.705851 11.30651 3.739161 15.109116 3.739161h779.165805c-38.603203-36.693714-83.930551-97.555873-82.599229-180.181709 1.329275-82.271772 46.282093-142.859685 84.029811-179.352831H147.879514zM3.902378 977.385333c-1.329275-4.969175-4.040013-22.110577 16.615423-34.034141 1.104147-0.650823 111.435998-65.982784 109.680005-175.535899-1.757017-110.308315-108.976994-175.739537-109.980857-176.343287-20.48045-12.095479-17.643845-29.186739-16.287965-34.132378 1.354857-4.969175 7.604188-21.107737 31.398104-21.107737h842.827731c12.199856 0 28.838815 4.192485 39.554878 9.91379 4.2897 2.308579 105.363699 58.228169 105.363699 221.267453 0 163.013701-101.072977 218.933291-105.340163 221.217311-10.739599 5.77247-27.378557 9.939373-39.578414 9.939373H35.326065c-23.8942-0.001023-30.093389-16.21531-31.423687-21.184485z m93.668333-389.752772c37.747719 36.493146 82.69849 97.081059 84.028789 179.353854 1.330298 82.622766-43.998073 143.487995-82.59923 180.181709h779.153526c3.814886 0 11.946077-2.033309 15.109116-3.739161 3.214205-1.782599 78.407768-45.228087 78.407767-176.015829 0-130.812301-75.193563-174.256766-78.231759-175.941128-3.339048-1.806135-11.470239-3.839445-15.285124-3.839445H97.570711z" fill="#13227a" p-id="25381"></path></svg>