<svg t="1596256150276" class="icon" viewBox="0 0 1024 1024" version="1.1" xmlns="http://www.w3.org/2000/svg" p-id="14713" width="200" height="200"><path d="M512 0C229.741714 0 0 229.668571 0 512s229.741714 512 512 512c282.404571 0 512-229.741714 512-512 0-282.331429-229.595429-512-512-512z m274.578286 259.949714L672.841143 611.84c-7.387429 23.04-31.963429 48.420571-54.857143 56.612571l-352.256 125.293715c-22.747429 8.118857-35.547429-4.169143-28.598857-27.282286l111.981714-368.420571c7.021714-23.113143 31.597714-47.908571 54.637714-55.149715l354.596572-111.469714c22.966857-7.314286 35.620571 5.558857 28.233143 28.525714z" fill="#2D8CF0" p-id="14714"></path><path d="M512 512m-73.142857 0a73.142857 73.142857 0 1 0 146.285714 0 73.142857 73.142857 0 1 0-146.285714 0Z" fill="#2D8CF0" p-id="14715"></path></svg>