<svg t="1596256409783" class="icon" viewBox="0 0 1199 1024" version="1.1" xmlns="http://www.w3.org/2000/svg" p-id="16518" width="200" height="200"><path d="M218.923756 412.69061h703.207962c11.941497 0 23.882994-1.329295 35.824491-2.658589a41.263522 41.263522 0 0 0 33.165903-30.507313c3.987884-15.918304-2.647512-31.847685-15.918304-41.130593a155.294851 155.294851 0 0 1-71.648983-127.39074c1.329295-54.37923 30.51839-104.79273 79.602596-131.378624 14.589009-7.964691 23.882994-23.882994 21.224405-41.14167a39.40251 39.40251 0 0 0-33.165902-33.077283C955.29762 1.428992 939.379316 0.099697 922.131718 0.099697H218.923756C102.167373-2.592125 3.987884 88.951969 0 207.015491c3.987884 116.756383 102.167373 208.311553 218.923756 205.652964z m0-333.021549h646.159065c-54.401385 75.62579-57.059974 177.782086-5.317178 254.78148H218.923756c-72.9672 2.658589-135.333276-54.401385-139.310082-127.39074A134.291995 134.291995 0 0 1 218.923756 79.624751zM782.821636 498.928602H79.613674c-15.918304 0-31.836608 1.329295-47.765989 5.306102-15.918304 2.658589-27.859801 15.929381-30.51839 31.847685s5.306101 31.847685 18.576893 41.130592a155.38347 155.38347 0 0 1 79.613674 131.356469c-1.329295 51.742795-27.870878 100.804846-71.648984 128.69788a39.025876 39.025876 0 0 0 15.918304 71.648983c11.941497 1.318217 23.882994 2.647512 37.153786 2.647512h701.878668c14.589009 0 26.585894-7.953613 34.484119-19.93942a42.282648 42.282648 0 0 0 0-39.801298 39.568672 39.568672 0 0 0-34.484119-19.93942H140.650454c23.882994-37.076244 37.175941-79.536132 37.175941-123.314237a221.826049 221.826049 0 0 0-42.44881-131.356469h646.170143c72.978278-2.658589 135.333276 54.401385 139.310082 127.39074-3.976807 74.296495-66.331804 131.345392-140.683686 127.39074H664.724881a39.801298 39.801298 0 1 0 0 79.602597h116.822847c118.085677 3.987884 214.90264-88.896582 218.923756-205.652965-3.987884-116.756383-100.804846-209.629771-217.594461-206.982258z m0 0" p-id="16519" fill="#8a8a8a"></path></svg>