<svg t="1596256534974" class="icon" viewBox="0 0 1024 1024" version="1.1" xmlns="http://www.w3.org/2000/svg" p-id="18976" width="200" height="200"><path d="M620.8 256L512 121.6 403.2 256l108.8 38.4L620.8 256z m51.2 19.2l19.2 115.2 83.2 76.8 70.4-160-172.8-32z m102.4 268.8l-89.6 64-19.2 121.6 172.8-19.2-64-166.4z m-166.4 217.6l-102.4-44.8-102.4 44.8L512 902.4l96-140.8z m-256-32l-12.8-115.2-96-76.8-57.6 172.8 166.4 19.2zM236.8 486.4l89.6-76.8 19.2-121.6-166.4 32 57.6 166.4zM512 64c19.2 0 32 6.4 38.4 19.2l108.8 134.4 192 44.8c12.8 6.4 32 12.8 38.4 32 6.4 12.8 6.4 25.6 0 44.8l-70.4 166.4 70.4 185.6c6.4 19.2 6.4 32-6.4 51.2-6.4 12.8-25.6 25.6-38.4 25.6l-192 25.6-102.4 147.2c-6.4 12.8-19.2 19.2-38.4 19.2-12.8 0-32-6.4-44.8-19.2l-115.2-153.6-172.8-19.2c-19.2 0-32-12.8-38.4-25.6-12.8-19.2-12.8-38.4-6.4-51.2L192 518.4 128 332.8c0-12.8 0-32 6.4-44.8 6.4-12.8 19.2-25.6 38.4-25.6l179.2-38.4 121.6-147.2c12.8-6.4 25.6-12.8 38.4-12.8zM403.2 313.6L384 416l-6.4 19.2-12.8 12.8-70.4 64 76.8 57.6 19.2 12.8v25.6l12.8 96 83.2-38.4 19.2-12.8 19.2 12.8 96 38.4 12.8-102.4 6.4-25.6 19.2-12.8 70.4-57.6-76.8-70.4-12.8-12.8v-19.2l-19.2-89.6-89.6 32-19.2 6.4-19.2-6.4-89.6-32z" p-id="18977" fill="#8a8a8a"></path></svg>