<svg t="1596256628912" class="icon" viewBox="0 0 1024 1024" version="1.1" xmlns="http://www.w3.org/2000/svg" p-id="22826" width="200" height="200"><path d="M946.174 821.348c-5.259-46.734-44.229-74.060-78.501-90.628s-221.401-116.797-224.395-121.126 5.348-52.035 8.103-59.396 44.673-66.527 58.289-96.262c11.283-24.628 26.044-67.727 27.126-105.007 1.633-55.353-0.399-93.235-25.91-142.407-22.432-43.171-49.239-75.625-85.405-99.228-38.448-25.083-76.967-35.939-117.609-35.897v-0.001h-0.122v0.001c-40.643-0.044-79.165 12.493-117.609 37.577-32.644 21.305-66.491 61.15-85.405 97.548-25.511 49.171-27.542 87.055-25.91 142.407 1.085 37.278 15.844 80.378 27.126 105.007 13.617 29.734 55.534 88.902 58.289 96.262s11.101 55.067 8.103 59.396-189.33 105.783-224.395 121.126-73.243 43.893-78.501 90.628 28.213 80.63 50.188 90.146 36.515 8.4 60.324 8.403c99.201 0.007 556.508 0.007 655.708 0 23.808-0.002 38.351 1.113 60.324-8.403s55.445-43.413 50.188-90.146zM829.438 860.271h-643.254c-45.275-0.004-53.917-9.565-54.791-33.334s8.828-27.476 49.743-47.876 218.928-112.91 235.173-126.784c8.069-6.894 14.001-20.339 15.927-30.329 4.237-21.958-7.631-80.507-12.51-91.658s-47.282-70.107-58.942-96.105c-8.898-19.866-20.895-57.977-21.689-85.633-1.321-45.773-1.615-74.455 18.999-115.053 17.491-34.401 35.895-54.926 63.201-73.141 28.377-18.928 57.34-30.197 86.099-30.197 0.119 0 0.236 0.002 0.356 0.004v0.001h0.122v-0.001c0.119-0.001 0.236-0.004 0.356-0.004 28.758 0 57.723 9.594 86.099 28.519 27.306 18.214 45.71 40.419 63.201 74.819 20.613 40.598 21.999 69.28 20.679 115.053-0.795 27.655-14.471 65.77-23.369 85.633-11.657 25.997-54.062 84.957-58.942 96.105s-16.749 69.699-12.51 91.658c1.926 9.987 7.863 23.435 15.927 30.329 16.245 13.876 200.43 110.236 235.173 126.784s50.188 27.138 49.743 47.876-9.519 33.33-54.791 33.334z" fill="#8a8a8a" p-id="22827"></path></svg>