<?xml version="1.0" encoding="utf-8"?>
<svg version="1.1" xmlns:xlink="http://www.w3.org/1999/xlink" width="44px" height="30px" xmlns="http://www.w3.org/2000/svg">
  <g transform="matrix(1 0 0 1 -127 -1448 )">
    <path d="M 7.246078125 25.0083143066406  C 7.09033374023437 24.7871143554688  6.847998046875 24.7902122558594  6.59067250976562 24.8496719238281  C 6.09625771484375 24.9646939453125  5.6020927734375 25.0797159667969  5.10787783203125 25.1951376953125  C 3.35036943359375 17.4701752441406  3.61014331054688 9.39629931640625  5.88605024414063 1.775766015625  C 6.02025922851563 1.32502163085937  5.75184125976562 0.738519287109375  5.33922099609375 0.60056279296875  C 4.92610107421875 0.462656298828126  4.36188364257812 0.794881054687499  4.22152880859375 1.26681108398438  C 1.857481640625 9.18164482421875  1.587814453125 17.5671094726562  3.41272719726563 25.5890206054688  C 2.77710815429688 25.7375698730469  2.14148911132813 25.8851698242188  1.50582006835938 26.0332194335938  C 1.2493439453125 26.0931288085937  1.02949301757813 26.2037538085937  0.997064990234376 26.5090967773438  C 0.965336523437501 26.8144397460937  1.0684666015625 27.0008633789062  1.30245791015625 27.1687495117187  C 2.39501713867188 27.9517686035156  3.505214453125 28.6761774902344  4.6284029296875 29.340676953125  C 4.958229296875 29.535394921875  5.34931416015625 29.4027848632812  5.50685732421875 29.0564696289063  C 6.04619165039063 27.8742711425781  6.6304955078125 26.736492578125  7.2555716796875 25.6472311035156  C 7.38928100585938 25.413689453125  7.40162265625 25.2295143066406  7.246078125 25.0083143066406  Z M 42.3310903808594 19.7984968261719  C 43.957387890625 15.2766624023438  42.3993941894531 13.1025364746094  40.3569290039063 10.9200162109375  C 38.7984356445313 9.25529487304687  31.3356954101563 6.26856987304688  28.5918057617187 5.25820493164063  C 27.9669793945313 5.02821088867188  27.1028652832031 5.5371658203125  26.8472885253906 6.24568540039062  C 26.7428593261719 6.5378373046875  26.7265703613281 7.0829177734375  26.7569497558594 7.37417026367187  L 28.3168421386719 7.9487806640625  C 28.6552127441406 8.07349609375  28.8297443847656 8.45198950195313  28.706827734375 8.79435737304687  C 28.5838610839844 9.13717495117187  28.2080159179687 9.3125560546875  27.8713441894531 9.18918969726563  L 25.2155947753906 8.21140263671875  C 25.0230253417969 8.14050073242187  24.8230109375 8.10432524414062  24.6207480957031 8.10432524414062  C 23.8923919433594 8.10432524414062  23.2353374023437 8.569659765625  22.9859564941406 9.26278979492187  C 22.8273140625 9.70429047851562  22.8480000488281 10.1815168945312  23.0441170410156 10.6080776855469  C 23.2406837890625 11.0337391113281  23.5891974609375 11.3567201171875  24.0254517089844 11.5171113769531  C 24.3638223144531 11.6418268066406  24.5383539550781 12.0207698730469  24.4154373046875 12.3626880859375  C 24.2920209960937 12.7055056640625  23.9179745605469 12.882635546875  23.5795540527344 12.7575204101562  C 23.5786546386719 12.757070703125  23.5778052246094 12.7566209960937  23.576905859375 12.7561713378906  L 22.3540849121094 12.3062763671875  C 22.1108498046875 12.2168370117187  21.866315625 12.1714677734375  21.6274775390625 12.1714677734375  C 20.9435912109375 12.1714677734375  20.4222946289062 12.5314736816406  20.1962479003906 13.1584985839844  C 20.0424521972656 13.586808203125  20.0662360351562 14.0398010742187  20.2637021484375 14.4354828125  C 20.4632668457031 14.8364609375  20.8215239257812 15.1479997070313  21.2714188964844 15.3136874023437  C 21.3053958496094 15.3260290527344  21.3388731445312 15.3414685546875  21.3705516601562 15.3595063476562  L 23.0965813964844 16.3500847167969  C 23.3873842285156 16.517071484375  23.5063535644531 16.8801253417969  23.3715449707031 17.1899652832031  C 23.2366864257813 17.4997052734375  22.8903212402344 17.65614921875  22.5739357421875 17.5517200195312  L 10.9847931640625 13.7524459472656  C 9.85675795898437 13.3400255859375  8.86992705078124 13.773581640625  8.52820874023437 14.7231877929687  C 8.17789624023437 15.6974772460937  8.68904970703124 16.6562771484375  9.77126596679687 17.0546070800781  L 28.6993327148437 23.563394140625  C 29.0404014648437 23.6810144042969  29.222877734375 24.0556104003906  29.1069563476562 24.4006265136719  C 28.9910849121094 24.7451929199219  28.6204861816406 24.92941796875  28.2798171386719 24.813096875  L 23.9729871582031 23.3320510253906  C 24.0452381835937 23.5796831542969  24.1461697265625 23.8771314453125  24.2867244628906 24.2243460449219  C 25.0323189453125 26.0666469726562  27.9123662597656 28.0552986816406  31.264743359375 28.0552986816406  C 31.9437829589844 28.0552986816406  32.6214235351562 27.9737539550781  33.278927734375 27.8129130371094  C 38.0824209472656 26.6403580078125  40.7046431152344 24.3181824707031  42.3310903808594 19.7984968261719  Z " fill-rule="nonzero" fill="#526069" stroke="none" transform="matrix(1 0 0 1 127 1448 )" />
  </g>
</svg>