<?xml version="1.0" encoding="utf-8"?>
<svg version="1.1" xmlns:xlink="http://www.w3.org/1999/xlink" width="44px" height="30px" xmlns="http://www.w3.org/2000/svg">
  <g transform="matrix(1 0 0 1 -127 -1522 )">
    <path d="M 7.2522240234375 4.51166103515626  C 6.62699790039063 3.43843872070313  6.042594140625 2.31809833984375  5.50310991210937 1.15318813476562  C 5.34556674804687 0.812519091796876  4.95438193359375 0.681607861328125  4.62450561523437 0.873327880859375  C 3.50106728515625 1.52828383789062  2.39037036132812 2.24140034179688  1.2977611328125 3.01312709960938  C 1.06371982421875 3.1784150390625  0.960589746093749 3.3621904296875  0.992318212890624 3.6623369140625  C 1.02469624023437 3.9633828125  1.24464711914062 4.072258984375  1.50117319335937 4.13176865234375  C 2.13699208984375 4.27722001953125  2.77276103515625 4.42267143554688  3.40853002929687 4.56852250976563  C 1.58316762695312 12.4711145507813  1.852884765625 20.7315639648438  4.21748154296875 28.5278780761719  C 4.3576365234375 28.9933125  4.92220375976563 29.3203407714844  5.33542358398437 29.1841831054688  C 5.74819375 29.0484251464844  6.01661171875 28.4710666015625  5.882402734375 28.0267678222656  C 3.60594619140625 20.520007421875  3.34612231445313 12.5663  5.10403046875 4.95725893554688  C 5.5983453125 5.07053212890626  6.09261020507812 5.18380532226563  6.58717490234375 5.29752822265626  C 6.844550390625 5.35613847656251  7.08698603515625 5.35923637695313  7.24278041992187 5.14148403320313  C 7.39837495117188 4.92333193359376  7.38603330078125 4.74175502929688  7.2522240234375 4.51166103515626  Z M 42.3354875976563 19.7267453613281  C 43.962584375 15.2724652832031  42.404091015625 13.1304675292969  40.3612260742187 10.9805251953125  C 38.8025328613281 9.34093681640625  31.3377939453125 6.39853178710937  28.5932547363281 5.40330654296875  C 27.9689779785156 5.17676015625  27.1042143066406 5.67787041015625  26.8485875976563 6.37649672851562  C 26.7441084472656 6.66385190429687  26.7273697753906 7.20068793945312  26.7579990234375 7.48804311523437  L 28.3184410644531 8.05395942382812  C 28.6569115722656 8.1764763671875  28.8314932128906 8.54937353515625  28.7082767578125 8.88694467773437  C 28.5850603027344 9.2245158203125  28.2097647460938 9.39729868164062  27.8723935058594 9.27523139648437  L 25.2165441894531 8.31223432617188  C 25.0235250488281 8.24258154296875  24.823660546875 8.20690576171875  24.6213477539062 8.20690576171875  C 23.8927916992187 8.20690576171875  23.2356372558594 8.66574467773437  22.9863562988281 9.34798212890625  C 22.8274640136719 9.7825375  22.8481999511719 10.253268359375  23.0445668457031 10.6728838378906  C 23.24113359375 11.0924493652344  23.5892975097656 11.41068359375  24.0259015136719 11.5689263183594  C 24.3643720214844 11.69189296875  24.5391035644531 12.0647401367188  24.4159870117187 12.4019115722656  C 24.2927705566406 12.7395326660156  23.9190239746094 12.9136146484375  23.5801037597656 12.7906479980469  C 23.5792043457031 12.7901982910156  23.5779052734375 12.7897485839844  23.577005859375 12.7893488769531  L 22.3543848144531 12.34639921875  C 22.1110997558594 12.2582090332031  21.866465625 12.213289453125  21.6273277832031 12.213289453125  C 20.94349140625 12.213289453125  20.4218950683594 12.56764921875  20.1959982421875 13.1855802246094  C 20.0421525390625 13.6073442871094  20.0659863769531 14.0538415527344  20.2630028320312 14.4439270507812  C 20.4631171386719 14.8384095703125  20.8212243652344 15.1455513671875  21.2712192382813 15.3086907226562  C 21.3053960449219 15.3210323730469  21.3384236816406 15.3360221679687  21.3701521484375 15.3540599609375  L 23.0967814941406 16.3298483886719  C 23.3876842773437 16.4942369140625  23.5066536132813 16.8516945800781  23.3720448730469 17.1571375  C 23.237186328125 17.4621307128906  22.8902715332031 17.6159764160156  22.5738360351563 17.5132960449219  L 10.9822451171875 13.7713331054687  C 9.85306069335937 13.3645089355469  8.86687934570313 13.7916193359375  8.52486123046875 14.7268852539062  C 8.174448828125 15.6868344238281  8.68595200195312 16.6313440429687  9.76841811523438 17.024077734375  L 28.7006320800781 23.4351810058594  C 29.0422004882813 23.5510524414062  29.224426953125 23.91995234375  29.1083056640625 24.2602715820313  C 28.9923842773438 24.5996415039062  28.6225849609375 24.7807687011719  28.2810165527344 24.6661963867188  L 23.973387109375 23.2077852050781  C 24.04543828125 23.4515199707031  24.1466196777344 23.7446212402344  24.2871743652344 24.0866393554687  C 25.03291875 25.9011591308594  27.913615625 27.8602808105469  31.2668421386719 27.8602808105469  C 31.9458317871094 27.8602808105469  32.6236722167969 27.7796354980469  33.2814762207031 27.6213927734375  C 38.0858188964844 26.4662259765625  40.7088904296875 24.1791766113281  42.3354875976563 19.7267453613281  Z " fill-rule="nonzero" fill="#526069" stroke="none" transform="matrix(1 0 0 1 127 1522 )" />
  </g>
</svg>