<?xml version="1.0" encoding="utf-8"?>
<svg version="1.1" xmlns:xlink="http://www.w3.org/1999/xlink" width="30px" height="44px" xmlns="http://www.w3.org/2000/svg">
  <g transform="matrix(1 0 0 1 -134 -1589 )">
    <path d="M 6.57138955078126 25.8211091796875  L 7.02368295898438 26.1260525390625  C 7.02368295898438 26.1260525390625  7.19651577148438 25.8967580078125  7.4683814453125 25.8073186523438  C 7.74109653320312 25.7169798828125  7.97039106445312 25.7212770019531  7.97039106445312 25.7212770019531  C 7.97039106445312 25.7212770019531  7.94865581054688 25.4442647949219  8.07372099609375 25.1133891601563  C 8.24045795898438 24.6712889160156  8.55229653320313 23.9799076660156  8.69644877929688 22.9959248046875  C 8.802376953125 22.2750135742188  8.86928159179688 21.3982080566406  8.91010390625 20.4875754882813  C 8.9587708984375 19.414952734375  9.07599145507812 18.131273046875  8.87707631835938 17.0082844238281  C 8.60611000976563 15.4779719726563  8.12843388671875 14.2884784667969  7.56126845703125 12.8315662597656  C 7.137405859375 11.7411555664063  6.62500322265625 10.3666874511719  6.31931049804688 9.31749877929688  C 5.71047329101563 7.23216264648438  5.16679189453125 5.33704750976563  5.28835947265625 4.08464663085938  C 5.37085356445313 3.24306723632813  5.88850258789063 2.73061464843751  6.39830693359375 2.57861772460938  C 8.26129384765625 2.02364399414063  8.87532749023438 4.27831533203126  9.92626499023438 6.26551801757813  C 10.491681640625 7.33294428710938  11.3146236816406 8.44114291992188  11.7458313476563 9.28362172851563  C 12.2530374511719 10.2763486816406  12.4354138183594 10.8321718261719  12.4354138183594 10.8321718261719  C 12.4354138183594 10.8321718261719  13.5102351074219 9.61279858398439  14.40088125 8.96223964843751  C 14.8638173828125 8.62436870117189  15.3063173828125 8.10936787109376  15.6363935546875 7.94867685546876  C 16.0936335449219 7.72807641601563  17.3065611816406 7.72028168945313  17.8949622558594 8.36644360351563  C 18.9979644042969 9.57677299804688  19.4808370117188 11.9742974609375  19.4808370117188 11.9742974609375  C 19.4808370117188 11.9742974609375  20.4657692382813 11.8666204589844  21.1180270019531 12.6604322753906  C 21.7972664550781 13.4859725585938  21.9666016601563 13.9111342773438  22.6127635742188 15.5813019042969  C 22.6127635742188 15.5813019042969  23.5916499023438 15.0084902832031  24.4853439453125 15.9104287597656  C 25.2227439941406 16.6547740722656  25.6586983886719 18.0808572265625  26.2015803222656 19.6399001953125  C 26.5758765625 20.711223828125  27.2681571777344 21.2379666992188  27.2681571777344 22.8950931640625  C 27.2681571777344 24.7807146972656  27.4678717773438 27.0309890136719  27.5634569824219 29.1693392089844  C 27.6277134277344 30.5858788085938  27.5121917480469 31.9538013671875  27.7414862792969 33.1350004882813  C 27.9950643554687 34.446411328125  27.6971663085938 33.7377418457031  29.1033629394531 36.3910428710938  C 29.3213151855469 36.8044625488281  29.4351379882813 37.8502035644531  28.8792648925781 38.6457641601563  C 26.5403506835938 41.9999899902344  17.6388358886719 46.4207427246094  14.6007457519531 41.8957606445313  C 13.8681424804688 40.8049002441406  13.477307421875 39.5985181640625  12.7659896972656 38.8768074707031  C 11.6051767089844 37.6990560058594  9.92456616210938 37.6938095214844  8.50457895507813 36.3910428222656  C 5.98323842773438 34.079909765625  3.26862890625 32.3029645507813  2.58469262695313 30.8872743652344  C 2.45573007812501 30.6197557617188  2.27725107421876 29.5610235839844  1.98719770507813 28.4510261230469  C 1.79093076171876 27.7005849121094  1.36272109375001 26.984120703125  1.21507119140626 26.3275158691406  C 0.800352392578132 24.4931595703125  0.348308837890631 24.0111363769531  0.32267622070313 23.143524609375  C 0.302290039062505 22.4730291992188  0.839026123046882 21.3230588867188  0.690976513671881 20.3503184082031  C 0.628868603515631 19.9429945800781  0.366546484375005 19.150881640625  0.277107128906255 18.5615811523438  C 0.127708398437505 17.5875415527344  0.43305141601563 16.6617192382813  1.23165996093751 16.5410011230469  C 1.87347480468751 16.4437170898438  2.47796499023438 16.6273925292969  3.22056147460938 17.3304658691406  C 4.12120083007813 18.1824881835938  4.93155141601563 19.4679166992188  5.2998017578125 20.4232689453125  C 5.65156328125 21.3361000488281  5.38929106445313 22.1785288574219  5.38929106445313 22.1785288574219  C 5.38929106445313 22.1785288574219  5.64206967773438 22.4060745605469  5.83398955078125 23.0192588378906  C 5.90694008789063 23.2512015625  5.99553002929688 23.74096953125  6.0884669921875 23.9876522460938  C 6.316912109375 24.5912430175781  6.47845258789063 25.0420873535156  6.57138955078126 25.3625700683594  C 6.655682421875 25.6561210449219  6.57138955078126 25.8211091796875  6.57138955078126 25.8211091796875  Z M 6.92030302734375 1.74143530273438  C 5.53848989257813 1.74143530273438  4.41894892578125 2.86177573242188  4.41894892578125 4.24278940429688  C 4.41894892578125 5.6246025390625  5.53843989257812 6.74414350585938  6.92030302734375 6.74414350585938  C 8.30216616210938 6.74414350585938  9.42165712890625 5.6246525390625  9.42165712890625 4.24278940429688  C 9.42165712890625 2.86177573242187  8.30216611328125 1.74143530273438  6.92030302734375 1.74143530273438  Z M 10.9559168945313 4.24363881835938  C 10.9559168945313 6.47137841796875  9.14894204101563 8.27790356445313  6.92030302734375 8.27790356445313  C 4.6916640625 8.27790356445313  2.8851388671875 6.47137836914063  2.8851388671875 4.24363881835938  C 2.8851388671875 2.01410043945313  4.6916640625 0.207625244140627  6.92030302734375 0.207625244140627  C 9.14894204101563 0.207625244140625  10.9559168945313 2.01410043945313  10.9559168945313 4.24363881835938  Z " fill-rule="nonzero" fill="#526069" stroke="none" transform="matrix(1 0 0 1 134 1589 )" />
  </g>
</svg>