<svg t="1596387645184" class="icon" viewBox="0 0 1024 1024" version="1.1" xmlns="http://www.w3.org/2000/svg" p-id="26985" width="200" height="200"><path d="M282.902346 417.132216L117.598808 512.476723 62.179814 305.102421A64.715084 64.715084 0 0 1 107.587635 226.443203l207.255121-56.014898 0.595903 190.689013a64.834264 64.834264 0 0 1-32.536313 56.014898zM315.438659 663.001862l-0.595903 190.689013L107.587635 798.510242a64.715084 64.715084 0 0 1-45.407821-79.612663L117.598808 512.476723l165.303538 94.748603a64.834264 64.834264 0 0 1 32.536313 55.776536z" fill="#1296db" p-id="26986"></path><path d="M544.503836 757.750466l164.707635 95.344506-151.478585 151.955307a64.595903 64.595903 0 0 1-91.411545 0L314.842756 853.571695l164.707635-95.344507a64.595903 64.595903 0 0 1 64.953445-0.476722z" fill="#1296db" p-id="26987"></path><path d="M741.151881 606.748603L906.097877 512.476723l55.418995 206.897579A64.595903 64.595903 0 0 1 916.10905 798.510242l-206.897579 55.061453v-190.689013a64.357542 64.357542 0 0 1 31.94041-56.134079zM708.615568 360.998138v-190.689013L916.10905 226.443203a64.595903 64.595903 0 0 1 45.765363 79.255121L906.097877 512.476723l-164.945996-95.344507a64.357542 64.357542 0 0 1-32.536313-56.134078z" fill="#1296db" p-id="26988"></path><path d="M479.550391 266.249534l-164.707635-95.344506L466.321341 18.949721a64.595903 64.595903 0 0 1 91.411545 0L709.211471 170.428305l-164.707635 95.344507a64.595903 64.595903 0 0 1-64.953445 0.476722z" fill="#1296db" p-id="26989"></path></svg>