<svg t="1596269804402" class="icon" viewBox="0 0 1025 1024" version="1.1" xmlns="http://www.w3.org/2000/svg" p-id="25931" width="200" height="200"><path d="M512.798 12.909c-283.342 0-512.798 223.731-512.798 499.73 0 276.002 229.457 499.761 512.798 499.761 283.343 0 512.813-223.759 512.813-499.761 0.001-275.998-229.47-499.73-512.813-499.73z m-93.903 730.018c-2.447 0-5.71-0.815-8.158-1.632-6.541-3.263-9.803-8.974-9.803-15.528V317.491c0-6.526 4.078-13.082 9.803-15.529 5.711-3.263 13.067-2.447 18.778 0.816l293.146 198.441c4.896 3.263 8.159 8.973 8.159 14.685 0 5.738-2.449 11.449-7.343 14.712L430.331 739.664c-3.264 2.447-7.356 3.263-10.621 3.263h-0.815z" fill="#474443" p-id="25932"></path></svg>