<svg t="1596270298519" class="icon" viewBox="0 0 1024 1024" version="1.1" xmlns="http://www.w3.org/2000/svg" p-id="34051" width="200" height="200"><path d="M541.9054352 936.6096519c-12.74232378 0-26.46482613-2.94053617-39.20715002-7.8414297L237.06984414 822.90891729c-52.92965257-21.56393249-79.39447874-82.33501488-57.83054625-135.26466768l209.7582524-523.415452c21.56393249-52.92965257 82.33501488-79.39447874 135.2646673-57.83054632l266.60861996 106.83948371c25.48464742 10.78196629 46.06840117 30.38554126 56.85036755 55.87018873 10.78196629 25.48464742 11.76214503 53.90983133 0.98017872 79.39447862L638.94313141 870.93767588c-10.78196629 25.48464742-30.38554126 46.06840117-55.87018868 56.85036739-13.7225025 5.8810726-27.4450051 8.82160871-41.16750753 8.82160863zM485.05506765 159.32790384c-16.66303862 0-33.32607743 9.80178751-40.18732859 26.46482605l-209.75825221 523.41545232c-8.82160871 21.56393249 1.96035755 47.04857999 23.52428982 55.8701887l266.60861983 106.83948375c10.78196629 3.92071507 22.5441112 3.92071507 32.34589886 0 10.78196629-4.90089373 18.62339619-12.74232378 22.54411133-23.52429009l209.75825205-523.41545213c3.92071507-10.78196629 3.92071507-22.5441112 0-32.34589878-4.90089373-10.78196629-12.74232378-18.62339619-23.52428994-22.54411123l-266.60861967-106.83948371c-3.92071507-2.94053617-9.80178751-3.92071507-14.70268148-3.92071488z" fill="#8a8a8a" p-id="34052"></path><path d="M404.59600394 790.19518342a40.18732867 40.18732867 0 1 0 29.86679313-74.61943852 40.18732867 40.18732867 0 1 0-29.86679313 74.61943852Z" fill="#8a8a8a" p-id="34053"></path><path d="M164.53661674 549.43904599c-3.92071507 0-7.84142998-0.98017877-10.78196625-1.96035759-15.68285998-5.8810726-22.5441112-23.52428999-16.66303878-39.20714991l98.01787514-244.06450856c5.8810726-15.68285998 23.52428999-22.5441112 39.20714986-16.66303879 15.68285998 5.8810726 22.5441112 23.52428999 16.66303866 39.20714992l-98.01787506 244.0645087c-4.90089373 11.76214503-15.68285998 18.62339619-28.42518357 18.62339623zM109.64660673 477.88599742c-3.92071507 0-7.84142998-0.98017877-10.78196616-1.96035761-15.68285998-5.8810726-22.5441112-23.52428999-16.66303867-39.20714997l56.85036747-142.12591881c5.8810726-15.68285998 23.52428999-22.5441112 39.20714986-16.66303864 15.68285998 5.8810726 22.5441112 23.52428999 16.66303867 39.20714996l-56.85036734 142.12591867c-4.90089373 11.76214503-15.68285998 18.62339619-28.42518383 18.6233964z" fill="#8a8a8a" p-id="34054"></path><path d="M764.40601137 789.58283964c-3.92071507 0-7.84142998-0.98017877-10.78196624-1.96035739-15.68285998-5.8810726-22.5441112-23.52428999-16.66303877-39.20715003l98.01787498-244.0645086c5.8810726-15.68285998 23.52428999-22.5441112 39.20715002-16.66303883 15.68285998 5.8810726 22.5441112 23.52428999 16.66303867 39.20714988l-98.01787497 244.06450863c-4.90089373 10.78196629-16.66303862 18.62339619-28.42518369 18.62339634zM853.60227758 775.86033715c-3.92071507 0-7.84142998-0.98017877-10.78196636-1.96035751-15.68285998-5.8810726-22.5441112-23.52428999-16.66303864-39.2071499l56.85036737-142.12591876c5.8810726-15.68285998 23.52428999-22.5441112 39.20714995-16.66303877 15.68285998 5.8810726 22.5441112 23.52428999 16.6630388 39.20715011l-56.85036747 142.12591863c-4.90089373 10.78196629-16.66303862 18.62339619-28.42518365 18.6233962z" fill="#8a8a8a" p-id="34055"></path></svg>