<?xml version="1.0" encoding="utf-8"?>
<svg version="1.1" xmlns:xlink="http://www.w3.org/1999/xlink" width="31px" height="31px" xmlns="http://www.w3.org/2000/svg">
  <g transform="matrix(1 0 0 1 -38 -1813 )">
    <path d="M 53.5 1813  C 62.18 1813  69 1819.82  69 1828.5  C 69 1837.18  62.18 1844  53.5 1844  C 44.82 1844  38 1837.18  38 1828.5  C 38 1819.82  44.82 1813  53.5 1813  Z " fill-rule="nonzero" fill="#ffffff" stroke="none" />
    <path d="M 53.5 1813.5  C 61.9 1813.5  68.5 1820.1  68.5 1828.5  C 68.5 1836.9  61.9 1843.5  53.5 1843.5  C 45.1 1843.5  38.5 1836.9  38.5 1828.5  C 38.5 1820.1  45.1 1813.5  53.5 1813.5  Z " stroke-width="1" stroke="#797979" fill="none" />
  </g>
</svg>