<svg t="1596384175482" class="icon" viewBox="0 0 1152 1024" version="1.1" xmlns="http://www.w3.org/2000/svg" p-id="15126" width="200" height="200"><path d="M264.704 750.912h752.768a36.032 36.032 0 0 0 33.6-33.472s51.648-287.232 75.2-484.992c6.784-54.72-19.072-81.536-69.568-81.536H234.432L220.928 33.536A35.008 35.008 0 0 0 189.568 0H38.08a38.016 38.016 0 0 0 0 75.968h117.76l76.352 641.6c0.448 17.92 14.592 32.448 32.512 33.344zM1053.44 225.728c-20.352 158.72-53.888 371.008-67.328 450.176H297.28l-53.824-450.176h809.92zM301.76 826.944a74.88 74.88 0 1 0 75.136 74.88 75.008 75.008 0 0 0-75.136-74.88z m678.656 0a74.88 74.88 0 1 0 75.2 74.88 75.008 75.008 0 0 0-75.136-74.88h-0.064z" fill="#8a8a8a" p-id="15127"></path></svg>