<svg t="1596384880410" class="icon" viewBox="0 0 1051 1024" version="1.1" xmlns="http://www.w3.org/2000/svg" p-id="17171" width="200" height="200"><path d="M525.215744 849.08032 200.614912 1024l61.99296-370.486272L0 391.133184l362.914816-54.052864L525.215744 0l162.300928 337.08032 362.914816 54.052864L787.823616 653.513728 849.816576 1024 525.215744 849.08032zM218.441728 917.458944 484.734976 773.95968 525.215744 752.145408l40.480768 21.814272 266.293248 143.499264 10.9312 65.327104-29.889536 21.39136-58.308608-31.42144L703.660032 667.5968l-7.257088-43.369472 31.107072-31.079424 217.851904-217.663488 62.575616 9.320448 12.101632 36.694016-44.755968 44.717056-300.3392-44.73344-44.705792-6.659072-19.608576-40.72448L477.860864 98.351104l29.530112-61.331456 35.648512 0 29.530112 61.331456L439.799808 374.098944l-19.608576 40.72448-44.705792 6.659072-300.3392 44.73344L30.391296 421.49888l12.101632-36.694016 62.57664-9.320448 217.851904 217.663488 31.107072 31.079424-7.257088 43.369472-51.06176 305.159168-58.308608 31.42144-29.889536-21.39136L218.441728 917.458944z" fill="#1296db" p-id="17172"></path></svg>