<?xml version="1.0" encoding="utf-8"?>
<svg version="1.1" xmlns:xlink="http://www.w3.org/1999/xlink" width="50px" height="50px" xmlns="http://www.w3.org/2000/svg">
  <g transform="matrix(1 0 0 1 -342 -2621 )">
    <path d="M 367 2621  C 381 2621  392 2632  392 2646  C 392 2660  381 2671  367 2671  C 353 2671  342 2660  342 2646  C 342 2632  353 2621  367 2621  Z " fill-rule="nonzero" fill="#ffffff" stroke="none" />
    <path d="M 367 2621.5  C 380.72 2621.5  391.5 2632.28  391.5 2646  C 391.5 2659.72  380.72 2670.5  367 2670.5  C 353.28 2670.5  342.5 2659.72  342.5 2646  C 342.5 2632.28  353.28 2621.5  367 2621.5  Z " stroke-width="1" stroke="#797979" fill="none" />
  </g>
</svg>