<svg t="1596594076627" class="icon" viewBox="0 0 1024 1024" version="1.1" xmlns="http://www.w3.org/2000/svg" p-id="12843" width="200" height="200"><path d="M157.538462 807.384615a295.384615 295.384615 0 0 1 295.699692-295.384615h38.754461C655.320615 512 787.692308 644.568615 787.692308 807.384615v49.23077c0 27.175385-22.449231 49.230769-49.427693 49.230769H206.966154A49.230769 49.230769 0 0 1 157.538462 856.615385V807.384615z m315.076923-374.153846a157.538462 157.538462 0 1 1 0-315.076923 157.538462 157.538462 0 0 1 0 315.076923z m335.28123-55.492923a39.384615 39.384615 0 1 1-39.778461-67.977846 39.345231 39.345231 0 0 0 0-68.135385 39.384615 39.384615 0 1 1 39.699692-68.01723 118.114462 118.114462 0 0 1 0.078769 204.130461z" fill="#bfbfbf" p-id="12844"></path></svg>