<svg t="1596594310121" class="icon" viewBox="0 0 1024 1024" version="1.1" xmlns="http://www.w3.org/2000/svg" p-id="17341" width="200" height="200"><path d="M967.214545 485.003636a1008.64 1008.64 0 0 0-136.843636-133.12 740.538182 740.538182 0 0 0-143.36-93.090909A408.203636 408.203636 0 0 0 512 215.970909a405.876364 405.876364 0 0 0-174.545455 43.752727 748.450909 748.450909 0 0 0-143.36 93.090909 1038.429091 1038.429091 0 0 0-138.24 132.189091 42.356364 42.356364 0 0 0 0 53.992728 1011.432727 1011.432727 0 0 0 137.309091 133.12 747.52 747.52 0 0 0 143.36 93.090909 406.341818 406.341818 0 0 0 174.545455 43.752727c229.003636 0 446.370909-257.861818 455.214545-269.032727a42.356364 42.356364 0 0 0 0-53.992728z m-181.527272 146.618182A678.632727 678.632727 0 0 1 651.636364 714.472727a342.574545 342.574545 0 0 1-141.963637 35.374546 349.090909 349.090909 0 0 1-149.410909-38.167273 693.527273 693.527273 0 0 1-132.189091-85.178182A1018.414545 1018.414545 0 0 1 109.381818 512a1001.658182 1001.658182 0 0 1 120.087273-114.501818A692.596364 692.596364 0 0 1 361.658182 311.854545 348.625455 348.625455 0 0 1 512 274.152727a350.952727 350.952727 0 0 1 150.341818 38.167273 686.08 686.08 0 0 1 132.189091 85.178182A989.556364 989.556364 0 0 1 913.221818 512a989.556364 989.556364 0 0 1-127.534545 120.087273z m0 0" p-id="17342" fill="#8a8a8a"></path><path d="M512 366.312727A145.221818 145.221818 0 1 0 656.756364 512 145.687273 145.687273 0 0 0 512 366.312727z m61.44 207.127273a87.04 87.04 0 1 1 25.134545-61.44 86.574545 86.574545 0 0 1-25.6 61.44z m0 0" p-id="17343" fill="#8a8a8a"></path></svg>