<svg t="1596594393346" class="icon" viewBox="0 0 1024 1024" version="1.1" xmlns="http://www.w3.org/2000/svg" p-id="21494" width="200" height="200"><path d="M970.105263 538.947368h-53.894737a26.947368 26.947368 0 1 1 0-53.894736h53.894737a26.947368 26.947368 0 1 1 0 53.894736z m-153.222737 316.038737L778.778947 816.882526a26.947368 26.947368 0 1 1 38.103579-38.103579l38.103579 38.103579a26.947368 26.947368 0 1 1-38.103579 38.103579z m0-609.738105A26.947368 26.947368 0 1 1 778.778947 207.117474l38.103579-38.103579a26.947368 26.947368 0 0 1 38.103579 38.103579zM512 835.368421a323.368421 323.368421 0 1 1 323.368421-323.368421 323.368421 323.368421 0 0 1-323.368421 323.368421z m0-592.842105a269.473684 269.473684 0 1 0 269.473684 269.473684A269.473684 269.473684 0 0 0 512 242.526316z m0-107.789474a26.947368 26.947368 0 0 1-26.947368-26.947368V53.894737a26.947368 26.947368 0 0 1 53.894736 0v53.894737a26.947368 26.947368 0 0 1-26.947368 26.947368zM207.117474 245.221053L169.013895 207.117474a26.947368 26.947368 0 0 1 38.103579-38.103579L245.221053 207.117474A26.947368 26.947368 0 1 1 207.117474 245.221053zM107.789474 538.947368H53.894737a26.947368 26.947368 0 1 1 0-53.894736h53.894737a26.947368 26.947368 0 1 1 0 53.894736z m99.328 239.831579A26.947368 26.947368 0 0 1 245.221053 816.882526l-38.103579 38.103579a26.947368 26.947368 0 0 1-38.103579-38.103579zM512 889.263158a26.947368 26.947368 0 0 1 26.947368 26.947368v53.894737a26.947368 26.947368 0 1 1-53.894736 0v-53.894737a26.947368 26.947368 0 0 1 26.947368-26.947368z" p-id="21495" fill="#8a8a8a"></path></svg>