<?xml version="1.0" encoding="utf-8"?>
<svg version="1.1" xmlns:xlink="http://www.w3.org/1999/xlink" width="87px" height="77px" xmlns="http://www.w3.org/2000/svg">
  <g transform="matrix(1 0 0 1 -169 -551 )">
    <path d="M 14.32747265625 64.1880067203776  C 14.0195235318271 63.6202601790365  13.5403597745028 63.6282114567057  13.0315570079457 63.7808246044922  C 12.0539641179865 64.0760477929688  11.0768652565696 64.3712709814453  10.0996675315163 64.6675200846354  C 6.6245941073331 44.8401164599609  7.13823790949041 24.1171682454427  11.6383266190962 4.55779944010416  C 11.9036943836559 3.40088885253906  11.3729588545366 1.89553283691406  10.5570960604581 1.54144450195313  C 9.74024530584162 1.18748450032552  8.62463356600675 2.04019470703125  8.34711378062855 3.25148178222656  C 3.67274778941762 23.5662217154948  3.13954221413353 45.088914313151  6.74789241277522 65.6784862207031  C 5.49110021417791 66.0597626741536  4.23430801558061 66.4386025488281  2.97741695334695 66.818596546224  C 2.47029371004972 66.9723639420573  2.03558846657493 67.2563014420573  1.97146941250888 68.040015061849  C 1.90873358043324 68.8237286816406  2.11264987127131 69.3022160058594  2.57531450417259 69.7331237467448  C 4.73560206964666 71.7428727490234  6.93076494140625 73.6021888916016  9.15161488370028 75.3077375130208  C 9.80377156427557 75.8075136328125  10.5770529984908 75.4671478157552  10.8885588001598 74.578272047526  C 11.9549698541815 71.5439625992839  13.110297935902 68.6236642838542  14.3462440030185 65.8278931656901  C 14.6106238070401 65.2284695963542  14.635026615767 64.7557533870443  14.32747265625 64.1880067203776  Z M 83.7001105257901 50.8161418538411  C 86.9157442382812 39.2101001660156  83.8351657836914 33.6298436181641  79.7966550759055 28.0280416080729  C 76.7150886607777 23.7552568408203  61.9592159246271 16.0893293408203  56.5337977561257 13.4960593245443  C 55.298345621005 12.9057412809245  53.5897563554244 14.2120589388021  53.0844114024769 16.0305925276693  C 52.8779263949308 16.7804490820313  52.8457186689897 18.1794889518229  52.9057870172674 18.9270370100911  L 55.990119683283 20.4018703710938  C 56.6591706531872 20.7219733072917  57.0042673062411 21.6934397216797  56.761227565696 22.5721839241536  C 56.5180889615146 23.4520823746745  55.7749405650746 23.9022272070312  55.1092487382369 23.5855868896484  L 49.8581078513405 21.0759334342448  C 49.4773455621893 20.8939518798828  49.0818625355114 20.8011014599609  48.6819337346857 20.8011014599609  C 47.2417749789151 20.8011014599609  45.9425989546342 21.9954600651042  45.4495048861417 23.7744938069661  C 45.1358255326704 24.9076788948568  45.1767273692738 26.1325600292969  45.5645041492809 27.2273993929036  C 45.9531702192827 28.3199303857422  46.6422767977628 29.1489149674479  47.5048704245827 29.560585867513  C 48.1739213944868 29.8806888037109  48.5190180475408 30.8533093408203  48.2759783069957 31.7308994205729  C 48.0319506059126 32.6107978710937  47.2923587901722 33.0654312369792  46.6232091497248 32.7443023860677  C 46.6214307628285 32.7431481380208  46.6197512395685 32.7419938899739  46.6179729492187 32.7408397672526  L 44.2001224398526 31.5861093424479  C 43.7191802956321 31.3565483300781  43.23566953125 31.2401006184896  42.7634214976918 31.2401006184896  C 41.4111917125355 31.2401006184896  40.3804461980646 32.1641157828776  39.9334901666815 33.7734796988932  C 39.6293941173207 34.8728077213542  39.6764212513317 36.0354894238281  40.0668656116832 37.0510725520833  C 40.461459444913 38.0802497395833  41.1698313987038 38.8798659147135  42.0593964544123 39.305130999349  C 42.1265781571822 39.3368079020182  42.192771899414 39.3764359570312  42.2554089643998 39.4227329589844  L 45.6682404885032 41.9652174397786  C 46.2432369972923 42.3938168098958  46.4784718206232 43.3256550439453  46.2119184647994 44.1209108935547  C 45.9452663418857 44.9159102018229  45.260407906827 45.3174496614583  44.6348274902344 45.0494147167969  L 21.7199319380327 35.2979445979818  C 19.4894986916282 34.2393990039062  17.5382648504084 35.3521928776042  16.8625945545543 37.7895153352864  C 16.1699312022816 40.2901915983073  17.18062101163 42.7511113476562  19.3204577070756 43.7734915055338  L 56.7464078679865 60.4793782942708  C 57.4207938054865 60.781270304362  57.7815991566051 61.7427333610026  57.5523909601385 62.6282747184245  C 57.3232815307617 63.5126618277995  56.5905067682439 63.9855061197917  55.9169111605557 63.6869486458333  L 47.4011336991743 59.8855976318359  C 47.5439936811967 60.5211867626953  47.7435628684304 61.2846373763021  48.021477915261 62.1758215152995  C 49.4957215509588 66.9043938964844  55.190360559082 72.0085999495442  61.8189243696733 72.0085999495442  C 63.1615708507191 72.0085999495442  64.5014510808771 71.7993018180338  65.8015162020596 71.3864767952474  C 75.2993323275479 68.3769188867187  80.4841807051225 62.4166683414713  83.7001105257901 50.8161418538411  Z " fill-rule="nonzero" fill="#526069" stroke="none" transform="matrix(1 0 0 1 169 551 )" />
  </g>
</svg>