<?xml version="1.0" encoding="utf-8"?>
<svg version="1.1" xmlns:xlink="http://www.w3.org/1999/xlink" width="77px" height="77px" xmlns="http://www.w3.org/2000/svg">
  <g transform="matrix(1 0 0 1 -191 -109 )">
    <path d="M 229.5 109  C 251.06 109  268 125.94  268 147.5  C 268 169.06  251.06 186  229.5 186  C 207.94 186  191 169.06  191 147.5  C 191 125.94  207.94 109  229.5 109  Z " fill-rule="nonzero" fill="#ffffff" stroke="none" />
    <path d="M 229.5 109.5  C 250.78 109.5  267.5 126.22  267.5 147.5  C 267.5 168.78  250.78 185.5  229.5 185.5  C 208.22 185.5  191.5 168.78  191.5 147.5  C 191.5 126.22  208.22 109.5  229.5 109.5  Z " stroke-width="1" stroke="#797979" fill="none" />
  </g>
</svg>