<svg t="1596387802790" class="icon" viewBox="0 0 1024 1024" version="1.1" xmlns="http://www.w3.org/2000/svg" p-id="28825" width="200" height="200"><path d="M928.96 145.088c-21.312-24.64-51.968-38.4-86.208-38.4L203.712 106.688c-33.984 0-68.672 13.312-95.168 36.16C79.808 167.616 64 200.704 64 235.584l0 547.392c0 34.368 16 68.928 43.968 94.912 26.944 25.088 61.888 39.424 95.744 39.424l639.04 0c34.304 0 65.088-14.784 86.656-41.728C949.12 851.072 960 818.176 960 782.912L960 235.584C960 200.512 948.992 168.256 928.96 145.088zM203.712 149.888l639.04 0c48.512 0 71.424 38.528 73.792 78.656L523.264 432 109.44 217.92C119.744 178.048 163.712 149.888 203.712 149.888zM842.752 874.112 203.712 874.112c-48.832 0-96.512-44.992-96.512-91.2L107.2 264.768 523.264 480l393.536-203.648 0 506.56C916.8 828.352 891.584 874.112 842.752 874.112z" p-id="28826" fill="#707070"></path></svg>