<svg t="1596388175919" class="icon" viewBox="0 0 1024 1024" version="1.1" xmlns="http://www.w3.org/2000/svg" p-id="43439" width="200" height="200"><path d="M628.906667 524.856889a25.144889 25.144889 0 1 0 24.860444 25.144889 25.031111 25.031111 0 0 0-24.860444-25.144889z" fill="#1afa29" p-id="43440"></path><path d="M512 0a512 512 0 1 0 512 512A512 512 0 0 0 512 0zM316.757333 327.338667a28.444444 28.444444 0 0 1 28.444445-28.444445h330.638222a28.444444 28.444444 0 0 1 28.444444 28.444445v35.896889H316.757333z m430.933334 348.330666a43.121778 43.121778 0 0 1-43.121778 43.064889H327.509333a43.064889 43.064889 0 0 1-43.064889-43.064889V427.918222a43.064889 43.064889 0 0 1 43.064889-43.121778h377.059556a43.121778 43.121778 0 0 1 43.121778 43.121778v46.648889h-123.562667a62.577778 62.577778 0 0 0-62.577778 62.577778v18.318222a62.577778 62.577778 0 0 0 62.577778 62.577778h123.562667zM790.755556 551.822222a48.412444 48.412444 0 0 1-48.469334 48.469334h-118.499555a48.412444 48.412444 0 0 1-48.469334-48.469334v-10.808889a48.412444 48.412444 0 0 1 48.469334-48.469333h118.499555A48.412444 48.412444 0 0 1 790.755556 541.013333z" fill="#1afa29" p-id="43441"></path></svg>