<?xml version="1.0" encoding="utf-8"?>
<svg version="1.1" xmlns:xlink="http://www.w3.org/1999/xlink" width="531px" height="12px" preserveAspectRatio="xMinYMid meet" viewBox="219 846  531 10" xmlns="http://www.w3.org/2000/svg">
  <path d="M 225.5 826  L 225.5 831  A 3 3 0 0 1 228.5 834 A 3 3 0 0 1 225.5 837 L 225.5 846  A 5 5 0 0 0 230.5 851.5 L 741 851.5  A 3 3 0 0 0 744.5 848.5 A 3 3 0 0 1 747.5 845.5 L 753 845.5  " stroke-width="3" stroke="#bfbf00" fill="none" />
  <path d="M 747.83933982822 841.56066017178  L 751.77867965644 845.5  L 747.83933982822 849.43933982822  L 749.96066017178 851.56066017178  L 754.96066017178 846.56066017178  L 756.02132034356 845.5  L 754.96066017178 844.43933982822  L 749.96066017178 839.43933982822  L 747.83933982822 841.56066017178  Z " fill-rule="nonzero" fill="#bfbf00" stroke="none" />
</svg>